<?xml version="1.0" standalone="no"?>
<!DOCTYPE svg PUBLIC "-//W3C//DTD SVG 20010904//EN"
 "http://www.w3.org/TR/2001/REC-SVG-20010904/DTD/svg10.dtd">
<svg version="1.0" xmlns="http://www.w3.org/2000/svg"
 width="426.000000pt" height="118.000000pt" viewBox="0 0 426.000000 118.000000"
 preserveAspectRatio="xMidYMid meet">
<metadata>
Created by potrace 1.15, written by Peter Selinger 2001-2017
</metadata>
<g transform="translate(0.000000,118.000000) scale(0.100000,-0.100000)"
fill="#000000" stroke="none">
<path d="M1224 1150 c-28 -16 -86 -60 -129 -96 l-78 -67 -161 7 c-89 4 -174 8
-191 9 -25 2 -30 -2 -29 -21 2 -57 -239 -277 -552 -503 -56 -40 -84 -67 -82
-77 7 -37 43 -20 199 98 l161 122 37 -35 c127 -122 233 -74 306 142 14 42 29
108 32 148 3 40 9 71 12 68 4 -2 57 -5 119 -6 62 -1 112 -6 112 -9 0 -4 -6
-13 -13 -19 -30 -25 -89 -172 -94 -235 -5 -55 -3 -65 19 -91 26 -29 56 -35
111 -21 24 6 27 4 27 -18 0 -14 14 -41 31 -61 55 -63 120 -44 223 63 l39 41
23 -24 c18 -19 33 -25 65 -25 51 0 94 30 139 95 27 39 34 44 51 35 16 -9 19
-17 13 -46 -19 -100 112 -98 226 3 l45 41 10 -32 c8 -23 17 -32 38 -34 23 -3
39 9 101 72 41 42 78 76 84 76 5 0 34 -16 63 -36 121 -84 222 -42 344 140 58
87 69 126 36 126 -13 0 -34 -24 -65 -73 -51 -82 -131 -163 -171 -173 -45 -11
-94 3 -137 40 -64 55 -89 50 -165 -30 -75 -77 -82 -64 -23 44 44 80 48 97 24
106 -10 4 -29 -10 -57 -41 -113 -127 -172 -183 -228 -213 -33 -18 -62 -30 -65
-27 -12 12 12 37 44 48 53 17 149 116 157 162 18 93 -31 87 -133 -18 -40 -41
-75 -75 -79 -75 -3 0 -14 7 -24 16 -13 12 -16 25 -12 51 5 32 4 35 -18 31 -18
-2 -31 -18 -54 -66 -33 -69 -91 -122 -132 -122 -38 0 -27 45 43 167 48 84 52
101 29 110 -25 9 -48 -20 -104 -128 -88 -167 -193 -279 -262 -279 -18 0 -32 7
-39 19 -20 38 -11 59 38 93 121 83 212 193 212 258 0 134 -173 21 -270 -177
-33 -66 -52 -83 -95 -83 -72 0 -44 161 50 286 22 29 30 31 102 38 86 7 111 21
91 49 -11 15 -20 16 -63 8 l-50 -9 41 36 c23 21 69 53 103 72 46 26 60 40 58
55 -3 30 -26 28 -83 -5z m-553 -336 c-13 -75 -61 -187 -93 -221 -12 -13 -31
-23 -44 -23 -27 0 -118 60 -121 80 -1 8 20 33 48 55 28 22 86 75 127 117 49
49 80 74 86 68 6 -6 5 -34 -3 -76z"/>
<path d="M3869 1140 c-41 -22 -130 -115 -186 -194 -44 -65 -94 -91 -153 -81
-32 5 -36 9 -32 30 3 16 -2 26 -15 33 -31 17 -97 -20 -182 -102 -59 -58 -86
-77 -119 -84 -23 -6 -42 -8 -42 -6 0 3 47 67 105 144 58 77 105 146 105 155 0
34 -48 12 -145 -66 -202 -162 -314 -222 -420 -223 -50 -1 -60 -4 -63 -20 -5
-26 14 -36 70 -36 81 0 190 49 348 158 28 19 30 22 -44 -76 -40 -52 -60 -69
-127 -103 -60 -29 -79 -44 -77 -57 3 -12 13 -17 36 -16 38 2 45 15 -86 -160
-130 -172 -195 -251 -285 -342 -39 -41 -66 -77 -63 -83 30 -48 143 68 403 411
l164 216 58 20 59 20 -2 -49 c-1 -59 19 -83 67 -82 71 2 153 70 232 192 42 66
62 81 108 81 18 0 18 -2 -1 -32 -65 -106 -91 -192 -73 -240 28 -75 123 -22
247 137 38 49 40 50 67 37 38 -19 78 -4 202 74 158 100 201 97 151 -12 -24
-53 -28 -56 -53 -50 -16 4 -55 9 -89 12 -58 6 -62 5 -82 -21 -52 -66 -12 -135
77 -135 39 0 52 5 76 30 17 18 39 30 54 30 14 0 43 5 64 11 31 8 37 14 37 37
0 26 -2 28 -35 24 l-35 -4 31 65 c33 73 36 132 7 151 -27 17 -116 -18 -219
-85 -110 -72 -134 -83 -159 -69 -19 10 -19 11 0 53 24 52 25 75 3 99 -9 10
-14 19 -12 21 54 37 124 96 139 118 26 35 25 54 -2 73 -29 21 -65 19 -109 -4z
m-101 -266 c-5 -20 -7 -45 -4 -56 7 -28 -9 -64 -49 -112 -45 -53 -133 -126
-151 -126 -55 0 79 255 161 305 22 13 43 25 47 25 3 0 2 -16 -4 -36z m-323
-81 c-10 -16 -40 -56 -67 -90 -39 -50 -58 -65 -98 -78 -65 -22 -76 -14 -48 37
18 31 36 46 83 68 33 15 78 41 100 58 50 38 51 38 30 5z"/>
</g>
</svg>
